<?xml version="1.0" encoding="UTF-8" standalone="no" ?>
<!DOCTYPE svg PUBLIC "-//W3C//DTD SVG 1.1//EN" "http://www.w3.org/Graphics/SVG/1.1/DTD/svg11.dtd">
<svg xmlns="http://www.w3.org/2000/svg" xmlns:xlink="http://www.w3.org/1999/xlink" version="1.1" width="1280" height="1024" viewBox="0 0 1280 1024" xml:space="preserve">
<desc>Created with Fabric.js 5.3.0</desc>
<defs>
</defs>
<g transform="matrix(1 0 0 1 640 512)" id="background-logo"  >
<rect style="stroke: none; stroke-width: 0; stroke-dasharray: none; stroke-linecap: butt; stroke-dashoffset: 0; stroke-linejoin: miter; stroke-miterlimit: 4; fill: rgb(255,255,255); fill-opacity: 0; fill-rule: nonzero; opacity: 1;"  paint-order="stroke"  x="-640" y="-512" rx="0" ry="0" width="1280" height="1024" />
</g>
<g transform="matrix(0.9840874205242202 0 0 0.9840874205242202 640.08277542092 529.5937738707238)" id="logo-logo"  >
<g style=""  paint-order="stroke"   >
		<g transform="matrix(0.4507549384660777 0 0 -0.4507549384660777 -38.91998440691498 -21.528168549874493)"  >
<path style="stroke: none; stroke-width: 1; stroke-dasharray: none; stroke-linecap: butt; stroke-dashoffset: 0; stroke-linejoin: miter; stroke-miterlimit: 4; fill: rgb(167,167,167); fill-rule: nonzero; opacity: 1;"  paint-order="stroke"  transform=" translate(-413.65599999999995, -547.76)" d="M 400.441 534.545 L 426.871 534.545 L 426.871 560.9749999999999 L 400.441 560.9749999999999 z" stroke-linecap="round" />
</g>
		<g transform="matrix(0.4507549384660777 0 0 -0.4507549384660777 -0.00040099874433963123 -6.857497521107177)"  >
<path style="stroke: none; stroke-width: 1; stroke-dasharray: none; stroke-linecap: butt; stroke-dashoffset: 0; stroke-linejoin: miter; stroke-miterlimit: 4; fill: rgb(167,167,167); fill-rule: nonzero; opacity: 1;"  paint-order="stroke"  transform=" translate(112.36128961586462, 19.20488917816789)" d="M 0 0 C -7.3 0 -13.216 5.917 -13.216 13.215 C -13.216 20.514 -7.3 26.43 0 26.43 C 7.298 26.43 13.214 20.514 13.214 13.215 C 13.214 5.917 7.298 0 0 0 M -26.017 -26.017 C -33.315 -26.017 -39.232 -20.1 -39.232 -12.801 C -39.232 -5.503 -33.315 0.4139999999999997 -26.017 0.4139999999999997 C -18.719 0.4139999999999997 -12.802 -5.503 -12.802 -12.801 C -12.802 -20.1 -18.719 -26.017 -26.017 -26.017 M -52.034 0 C -59.332 0 -65.249 5.917 -65.249 13.215 C -65.249 20.514 -59.331999999999994 26.43 -52.03399999999999 26.43 C -44.73499999999999 26.43 -38.81799999999999 20.514 -38.81799999999999 13.215 C -38.818 5.917 -44.735 0 -52.034 0 M -159.599 0.127 L -185.48899999999998 0.127 L -185.48899999999998 -25.763 L -211.91899999999998 -25.763 L -211.91899999999998 0.1269999999999989 L -237.80899999999997 0.1269999999999989 L -237.80899999999997 26.557 L -211.91899999999998 26.557 L -211.91899999999998 52.447 L -185.48899999999998 52.447 L -185.48899999999998 26.557000000000002 L -159.599 26.557000000000002 z M -26.016999999999996 52.447 C -18.718999999999994 52.447 -12.801999999999996 46.531000000000006 -12.801999999999996 39.232 C -12.801999999999996 31.933999999999997 -18.718999999999994 26.017 -26.016999999999996 26.017 C -33.315 26.017 -39.232 31.933999999999997 -39.232 39.232 C -39.232 46.531 -33.315 52.447 -26.017 52.447 M 57.133 -70.804 L 46.537 18.294 C 42.429 52.846 13.09 78.901 -21.706 78.901 L -203.015 78.901 C -237.81099999999998 78.901 -267.15 52.846 -271.258 18.293999999999997 L -281.873 -70.982 C -282 -72.243 -282.077 -73.706 -282.077 -75.164 C -282.077 -86.707 -277.501 -97.479 -269.192 -105.49600000000001 C -260.892 -113.507 -249.99200000000002 -117.65 -238.37800000000001 -117.287 C -215.99200000000002 -116.489 -197.77900000000002 -97.02000000000001 -197.77900000000002 -73.888 L -197.77900000000002 -68.84 C -197.77900000000002 -52.271 -184.3 -38.791000000000004 -167.73100000000002 -38.791000000000004 L -56.99 -38.791000000000004 C -40.42100000000001 -38.791000000000004 -26.943 -52.271 -26.943 -68.84 L -26.943 -75.164 C -26.943 -87.133 -21.826 -98.581 -12.904000000000002 -106.572 C -3.857000000000001 -114.673 7.841999999999997 -118.375 20.053999999999995 -117.046 C 39.89099999999999 -114.85400000000001 55.882999999999996 -98.13900000000001 57.251999999999995 -78.16300000000001 C 57.419999999999995 -75.69700000000002 57.382 -73.22300000000001 57.132999999999996 -70.80400000000002" stroke-linecap="round" />
</g>
		<g transform="matrix(0.4507549384660777 0 0 -0.4507549384660777 -0.00013522648146135907 59.11919217170998)"  >
<path style="stroke: none; stroke-width: 1; stroke-dasharray: none; stroke-linecap: butt; stroke-dashoffset: 0; stroke-linejoin: miter; stroke-miterlimit: 4; fill: rgb(108,108,108); fill-rule: nonzero; opacity: 1;"  paint-order="stroke"  transform=" translate(-52.5305, 88.6445)" d="M 0 0 L -68.729 -159.86 L -37.351 -177.288 L 0.42500000000000426 -68.93500000000002 C 3.8430000000000044 -59.13000000000002 13.089000000000004 -52.56200000000001 23.473000000000003 -52.56200000000001 L 81.581 -52.56200000000001 C 91.96300000000001 -52.56200000000001 101.209 -59.13000000000001 104.62700000000001 -68.933 L 142.409 -177.289 L 173.79 -159.86 L 105.06 0 Z" stroke-linecap="round" />
</g>
		<g transform="matrix(0.4507549384660777 0 0 -0.4507549384660777 22.69131913083936 80.05004281487618)"  >
<path style="stroke: none; stroke-width: 1; stroke-dasharray: none; stroke-linecap: butt; stroke-dashoffset: 0; stroke-linejoin: miter; stroke-miterlimit: 4; fill: rgb(108,108,108); fill-rule: nonzero; opacity: 1;"  paint-order="stroke"  transform=" translate(-19.284999999999997, 70.644)" d="M 0 0 L -9.571 0 L 7.623 -141.288 L 48.141 -118.786 L 8.935 -6.347 C 7.609 -2.546 4.024 0 0 0" stroke-linecap="round" />
</g>
		<g transform="matrix(0.4507549384660777 0 0 -0.4507549384660777 -0.0023890011738672 84.89160160894028)"  >
<path style="stroke: none; stroke-width: 1; stroke-dasharray: none; stroke-linecap: butt; stroke-dashoffset: 0; stroke-linejoin: miter; stroke-miterlimit: 4; fill: rgb(108,108,108); fill-rule: nonzero; opacity: 1;"  paint-order="stroke"  transform=" translate(-9.3385, 81.385)" d="M 0 0 L -17.977 -147.598 L 9.344 -162.77 L 36.654 -147.602 L 18.687 0 Z" stroke-linecap="round" />
</g>
		<g transform="matrix(0.4507549384660777 0 0 -0.4507549384660777 -22.69258124466694 80.04846517259148)"  >
<path style="stroke: none; stroke-width: 1; stroke-dasharray: none; stroke-linecap: butt; stroke-dashoffset: 0; stroke-linejoin: miter; stroke-miterlimit: 4; fill: rgb(108,108,108); fill-rule: nonzero; opacity: 1;"  paint-order="stroke"  transform=" translate(19.280500000000004, 70.6405)" d="M 0 0 C -4.026 0 -7.611 -2.546 -8.936 -6.348 L -48.136 -118.785 L -7.63 -141.281 L 9.575 0 Z" stroke-linecap="round" />
</g>
		<g transform="matrix(0.4507549384660777 0 0 -0.4507549384660777 5.190869354118433 -95.69101380217978)"  >
<path style="stroke: none; stroke-width: 1; stroke-dasharray: none; stroke-linecap: butt; stroke-dashoffset: 0; stroke-linejoin: miter; stroke-miterlimit: 4; fill: rgb(108,108,108); fill-rule: nonzero; opacity: 1;"  paint-order="stroke"  transform=" translate(-75.7776456084563, -57.4265)" d="M 0 0 L 132.152 0 L 123.43199999999999 53.622 L 152.42899999999997 53.622 L 153.20899999999997 64.208 C 153.37399999999997 66.407 154.39199999999997 85.97399999999999 140.825 100.556 C 132.011 110.056 119.53299999999999 114.853 103.74699999999999 114.853 L -1.736 114.853 L 12.783 78.64 Z" stroke-linecap="round" />
</g>
		<g transform="matrix(0.4507549384660777 0 0 -0.4507549384660777 -100.95845985977337 -21.528350504647477)"  >
<path style="stroke: none; stroke-width: 1; stroke-dasharray: none; stroke-linecap: butt; stroke-dashoffset: 0; stroke-linejoin: miter; stroke-miterlimit: 4; fill: rgb(108,108,108); fill-rule: nonzero; opacity: 1;"  paint-order="stroke"  transform=" translate(61.23808105382898, 188.33239633326804)" d="M 0 0 C -4.482 4.481 -10.56 6.999 -16.898 6.999 L -124.755 6.999 C -165.687 6.999 -198.87099999999998 -26.185 -198.87099999999998 -67.11800000000001 L -198.87099999999998 -299.696 C -198.87099999999998 -303.208 -197.725 -306.696 -195.35899999999998 -309.29100000000005 C -192.50699999999998 -312.4200000000001 -188.55899999999997 -314.00800000000004 -184.344 -313.73500000000007 C -177.356 -313.28400000000005 -171.66899999999998 -306.8160000000001 -171.66899999999998 -299.3180000000001 L -171.66899999999998 -129.26200000000009 C -171.66899999999998 -123.43000000000009 -167.40599999999998 -118.2220000000001 -161.599 -117.66800000000009 C -154.94 -117.0320000000001 -149.337 -122.2520000000001 -149.337 -128.7820000000001 L -149.337 -351.83900000000006 C -149.337 -358.75000000000006 -144.38 -364.91700000000003 -137.52599999999998 -365.79600000000005 C -129.23199999999997 -366.85900000000004 -122.13699999999999 -360.39700000000005 -122.13699999999999 -352.31000000000006 L -122.13699999999999 -110.74400000000006 C -122.13699999999999 -104.91200000000006 -117.87299999999999 -99.70400000000006 -112.06899999999999 -99.15000000000006 C -105.40799999999999 -98.51500000000006 -99.80399999999999 -103.73500000000006 -99.80399999999999 -110.26400000000007 L -99.80399999999999 -369.58900000000006 C -99.80399999999999 -376.50000000000006 -94.84899999999999 -382.66800000000006 -87.993 -383.54900000000004 C -79.69999999999999 -384.612 -72.603 -378.15000000000003 -72.603 -370.06500000000005 L -72.603 -128.78200000000007 L -72.604 -128.78200000000007 C -72.604 -122.61500000000007 -67.605 -117.61600000000007 -61.438 -117.61600000000007 C -55.273 -117.61600000000007 -50.272000000000006 -122.61500000000007 -50.272000000000006 -128.78200000000007 L -50.27100000000001 -128.78200000000007 L -50.27100000000001 -340.3020000000001 C -50.27100000000001 -343.83600000000007 -49.11300000000001 -347.34600000000006 -46.726000000000006 -349.95200000000006 C -43.87400000000001 -353.06600000000003 -39.952000000000005 -354.62100000000004 -35.739000000000004 -354.36800000000005 C -28.752000000000002 -353.9150000000001 -23.068000000000005 -347.446 -23.068000000000005 -339.94900000000007 L -23.068000000000005 -46.629000000000076 C -23.068000000000005 -41.819000000000074 -20.640000000000004 -37.17600000000007 -16.402000000000005 -34.90000000000008 C -11.378000000000004 -32.20100000000008 -5.324000000000005 -33.14700000000008 -1.3760000000000048 -37.093000000000075 L 53.39 -91.859 C 56.075 -94.54499999999999 59.583 -95.994 63.457 -95.836 C 67.25 -95.713 70.73 -94.06099999999999 73.258 -91.18299999999999 C 77.883 -85.922 77.328 -77.32799999999999 72.027 -72.026 z" stroke-linecap="round" />
</g>
		<g transform="matrix(0.4507549384660777 0 0 -0.4507549384660777 100.95845985977343 -21.528350504647477)"  >
<path style="stroke: none; stroke-width: 1; stroke-dasharray: none; stroke-linecap: butt; stroke-dashoffset: 0; stroke-linejoin: miter; stroke-miterlimit: 4; fill: rgb(108,108,108); fill-rule: nonzero; opacity: 1;"  paint-order="stroke"  transform=" translate(-61.238081053828964, 188.33239633326804)" d="M 0 0 C 4.481 4.481 10.561 6.999 16.898 6.999 L 124.755 6.999 C 165.687 6.999 198.87099999999998 -26.185 198.87099999999998 -67.11800000000001 L 198.87099999999998 -299.696 C 198.87099999999998 -303.208 197.725 -306.696 195.35799999999998 -309.29100000000005 C 192.50699999999998 -312.4200000000001 188.55899999999997 -314.00800000000004 184.34499999999997 -313.73500000000007 C 177.35599999999997 -313.28400000000005 171.66899999999998 -306.8160000000001 171.66899999999998 -299.3180000000001 L 171.66899999999998 -129.26200000000009 C 171.66899999999998 -123.43000000000009 167.40499999999997 -118.2220000000001 161.6 -117.66800000000009 C 154.94 -117.0320000000001 149.337 -122.2520000000001 149.337 -128.7820000000001 L 149.337 -351.83900000000006 C 149.337 -358.75000000000006 144.38 -364.91700000000003 137.52499999999998 -365.79600000000005 C 129.23199999999997 -366.85900000000004 122.13699999999997 -360.39700000000005 122.13699999999997 -352.31000000000006 L 122.13699999999997 -110.74400000000006 C 122.13699999999997 -104.91200000000006 117.87299999999998 -99.70400000000006 112.06899999999997 -99.15000000000006 C 105.40799999999997 -98.51500000000006 99.80499999999998 -103.73500000000006 99.80499999999998 -110.26400000000007 L 99.80499999999998 -369.58900000000006 C 99.80499999999998 -376.50000000000006 94.84899999999998 -382.66800000000006 87.99299999999998 -383.54900000000004 C 79.69999999999999 -384.612 72.60299999999998 -378.15000000000003 72.60299999999998 -370.06500000000005 L 72.60299999999998 -128.78200000000007 L 72.60399999999998 -128.78200000000007 C 72.60399999999998 -122.61500000000007 67.60499999999999 -117.61600000000007 61.43799999999999 -117.61600000000007 C 55.27199999999999 -117.61600000000007 50.27099999999999 -122.61500000000007 50.27099999999999 -128.78200000000007 L 50.27099999999999 -128.78200000000007 L 50.27099999999999 -340.3020000000001 C 50.27099999999999 -343.83600000000007 49.112999999999985 -347.34600000000006 46.725999999999985 -349.95200000000006 C 43.87399999999999 -353.06600000000003 39.951999999999984 -354.62100000000004 35.73899999999998 -354.36800000000005 C 28.75199999999998 -353.9150000000001 23.067999999999984 -347.446 23.067999999999984 -339.94900000000007 L 23.067999999999984 -46.629000000000076 C 23.067999999999984 -41.819000000000074 20.639999999999983 -37.17600000000007 16.401999999999983 -34.90000000000008 C 11.378999999999984 -32.20100000000008 5.323999999999984 -33.14700000000008 1.3759999999999835 -37.093000000000075 L -53.39 -91.859 C -56.075 -94.54499999999999 -59.583 -95.994 -63.456 -95.836 C -67.24900000000001 -95.713 -70.73 -94.06099999999999 -73.25800000000001 -91.18299999999999 C -77.88300000000001 -85.922 -77.328 -77.32799999999999 -72.02700000000002 -72.026 z" stroke-linecap="round" />
</g>
</g>
</g>
<g transform="matrix(1.9211538461538462 0 0 1.9211538461538462 642.3705987830529 721.8651411798575)" id="text-logo"  >
<g style=""  paint-order="stroke"   >
		<g transform="matrix(1 0 0 1 0 0)" id="text-logo-path-0"  >
<path style="stroke: none; stroke-width: 0; stroke-dasharray: none; stroke-linecap: butt; stroke-dashoffset: 0; stroke-linejoin: miter; stroke-miterlimit: 4; fill: rgb(108,108,108); fill-rule: nonzero; opacity: 1;"  paint-order="stroke"  transform=" translate(-313.48, 16.815)" d="M 33.75 -9.14 L 33.75 0 L 10.47 0 L 10.47 -9.14 L 33.75 -9.14 Z M 14.5 -44.08 L 14.5 0 L 3.12 0 L 3.12 -44.08 L 14.5 -44.08 Z M 30.76 -27 L 30.76 -18.19 L 10.47 -18.19 L 10.47 -27 L 30.76 -27 Z M 33.85 -44.08 L 33.85 -34.91 L 10.47 -34.91 L 10.47 -44.08 L 33.85 -44.08 Z M 48.01 -25.76 L 48.01 0 L 37.12 0 L 37.12 -32.76 L 47.32 -32.76 L 48.01 -25.76 Z M 46.74 -17.38 L 44.23 -17.17 Q 44.2 -22.37 45.77 -25.99 Q 47.35 -29.61 50.21 -31.48 Q 53.07 -33.36 56.85 -33.36 L 56.85 -33.36 Q 59.88 -33.36 62.18 -32.15 Q 64.48 -30.94 65.8 -28.12 Q 67.12 -25.31 67.12 -20.43 L 67.12 -20.43 L 67.12 0 L 56.16 0 L 56.16 -20.46 Q 56.16 -22.22 55.66 -23.1 Q 55.16 -23.98 54.2 -24.28 Q 53.25 -24.58 51.86 -24.58 L 51.86 -24.58 Q 50.41 -24.58 49.42 -24.08 Q 48.44 -23.58 47.85 -22.63 Q 47.26 -21.68 47 -20.34 Q 46.74 -19.01 46.74 -17.38 L 46.74 -17.38 Z M 90.18 -32.76 L 90.18 -24.88 L 70.05 -24.88 L 70.05 -32.76 L 90.18 -32.76 Z M 74.05 -40.9 L 84.95 -40.9 L 84.95 -11.29 Q 84.95 -10.14 85.22 -9.49 Q 85.49 -8.84 86.2 -8.57 Q 86.92 -8.29 88.16 -8.29 L 88.16 -8.29 Q 89 -8.29 89.58 -8.33 Q 90.15 -8.36 90.64 -8.45 L 90.64 -8.45 L 90.61 -0.33 Q 89.22 0.15 87.79 0.38 Q 86.37 0.61 84.67 0.61 L 84.67 0.61 Q 81.28 0.61 78.91 -0.47 Q 76.53 -1.54 75.29 -3.83 Q 74.05 -6.12 74.05 -9.72 L 74.05 -9.72 L 74.05 -40.9 Z M 110.04 0.61 L 110.04 0.61 Q 104.59 0.61 100.77 -1.6 Q 96.94 -3.81 94.94 -7.43 Q 92.94 -11.05 92.94 -15.26 L 92.94 -15.26 L 92.94 -16.38 Q 92.94 -21.07 94.7 -24.93 Q 96.45 -28.79 99.99 -31.08 Q 103.54 -33.36 108.89 -33.36 L 108.89 -33.36 Q 113.65 -33.36 117.01 -31.41 Q 120.37 -29.46 122.17 -25.84 Q 123.97 -22.22 123.97 -17.2 L 123.97 -17.2 L 123.97 -12.62 L 97.03 -12.62 L 97.03 -19.62 L 113.31 -19.62 L 113.31 -20.5 Q 113.34 -21.92 112.83 -22.83 Q 112.31 -23.73 111.3 -24.16 Q 110.29 -24.58 108.8 -24.58 L 108.8 -24.58 Q 106.68 -24.58 105.62 -23.4 Q 104.56 -22.22 104.2 -20.36 Q 103.84 -18.5 103.84 -16.38 L 103.84 -16.38 L 103.84 -15.26 Q 103.84 -13.08 104.66 -11.49 Q 105.47 -9.9 107.03 -9.05 Q 108.59 -8.2 110.77 -8.2 L 110.77 -8.2 Q 112.77 -8.2 114.78 -8.9 Q 116.79 -9.6 118.19 -11.35 L 118.19 -11.35 L 123.09 -5.09 Q 121.58 -2.97 118.2 -1.18 Q 114.83 0.61 110.04 0.61 Z M 138.8 -24.01 L 138.8 0 L 127.91 0 L 127.91 -32.76 L 138.08 -32.76 L 138.8 -24.01 Z M 148.25 -33 L 148.07 -22.34 Q 147.43 -22.4 146.36 -22.49 Q 145.28 -22.58 144.62 -22.58 L 144.62 -22.58 Q 142.32 -22.58 140.88 -21.99 Q 139.44 -21.4 138.8 -20.16 Q 138.17 -18.92 138.2 -16.89 L 138.2 -16.89 L 136.29 -18.53 Q 136.29 -22.98 137.41 -26.32 Q 138.53 -29.67 140.57 -31.51 Q 142.62 -33.36 145.37 -33.36 L 145.37 -33.36 Q 146.13 -33.36 146.9 -33.29 Q 147.67 -33.21 148.25 -33 L 148.25 -33 Z M 170.83 -32.76 L 170.83 -24.88 L 150.7 -24.88 L 150.7 -32.76 L 170.83 -32.76 Z M 154.7 -40.9 L 165.6 -40.9 L 165.6 -11.29 Q 165.6 -10.14 165.87 -9.49 Q 166.14 -8.84 166.85 -8.57 Q 167.56 -8.29 168.8 -8.29 L 168.8 -8.29 Q 169.65 -8.29 170.23 -8.33 Q 170.8 -8.36 171.29 -8.45 L 171.29 -8.45 L 171.26 -0.33 Q 169.86 0.15 168.44 0.38 Q 167.02 0.61 165.32 0.61 L 165.32 0.61 Q 161.93 0.61 159.56 -0.47 Q 157.18 -1.54 155.94 -3.83 Q 154.7 -6.12 154.7 -9.72 L 154.7 -9.72 L 154.7 -40.9 Z M 191.21 -8.81 L 191.21 -21.52 Q 191.21 -23.34 190.44 -24.42 Q 189.66 -25.49 187.79 -25.49 L 187.79 -25.49 Q 186.79 -25.49 186.11 -25.19 Q 185.42 -24.88 185.08 -24.22 Q 184.73 -23.55 184.73 -22.43 L 184.73 -22.43 L 173.83 -22.43 Q 173.83 -25.64 175.62 -28.09 Q 177.4 -30.55 180.67 -31.95 Q 183.94 -33.36 188.36 -33.36 L 188.36 -33.36 Q 192.3 -33.36 195.42 -32.04 Q 198.53 -30.73 200.35 -28.08 Q 202.17 -25.43 202.17 -21.46 L 202.17 -21.46 L 202.17 -8.54 Q 202.17 -5 202.54 -3.39 Q 202.92 -1.79 203.59 -0.54 L 203.59 -0.54 L 203.59 0 L 192.69 0 Q 191.93 -1.6 191.57 -3.94 Q 191.21 -6.27 191.21 -8.81 L 191.21 -8.81 Z M 192.51 -20.13 L 192.57 -14.2 L 188.36 -14.2 Q 185.79 -14.2 184.88 -12.81 Q 183.97 -11.41 183.97 -9.87 L 183.97 -9.87 Q 183.97 -8.75 184.8 -8.07 Q 185.64 -7.39 186.88 -7.39 L 186.88 -7.39 Q 188.42 -7.39 189.5 -7.95 Q 190.57 -8.51 191.12 -9.26 Q 191.66 -10.02 191.57 -10.6 L 191.57 -10.6 L 193.9 -6.02 Q 193.3 -4.84 192.55 -3.68 Q 191.81 -2.51 190.72 -1.54 Q 189.63 -0.58 188.06 0.02 Q 186.48 0.61 184.24 0.61 L 184.24 0.61 Q 181.25 0.61 178.69 -0.64 Q 176.13 -1.88 174.59 -4.12 Q 173.04 -6.36 173.04 -9.32 L 173.04 -9.32 Q 173.04 -14.38 176.77 -17.26 Q 180.49 -20.13 188.45 -20.13 L 188.45 -20.13 L 192.51 -20.13 Z M 218.91 -32.76 L 218.91 0 L 207.98 0 L 207.98 -32.76 L 218.91 -32.76 Z M 207.37 -41.05 L 207.37 -41.05 Q 207.37 -43.47 209.04 -44.99 Q 210.7 -46.5 213.37 -46.5 L 213.37 -46.5 Q 216.06 -46.5 217.71 -44.99 Q 219.36 -43.47 219.36 -41.05 L 219.36 -41.05 Q 219.36 -38.66 217.71 -37.13 Q 216.06 -35.6 213.37 -35.6 L 213.37 -35.6 Q 210.7 -35.6 209.04 -37.13 Q 207.37 -38.66 207.37 -41.05 Z M 235.53 -25.76 L 235.53 0 L 224.63 0 L 224.63 -32.76 L 234.83 -32.76 L 235.53 -25.76 Z M 234.26 -17.38 L 231.74 -17.17 Q 231.71 -22.37 233.29 -25.99 Q 234.86 -29.61 237.72 -31.48 Q 240.58 -33.36 244.37 -33.36 L 244.37 -33.36 Q 247.39 -33.36 249.7 -32.15 Q 252 -30.94 253.31 -28.12 Q 254.63 -25.31 254.63 -20.43 L 254.63 -20.43 L 254.63 0 L 243.67 0 L 243.67 -20.46 Q 243.67 -22.22 243.17 -23.1 Q 242.67 -23.98 241.72 -24.28 Q 240.76 -24.58 239.37 -24.58 L 239.37 -24.58 Q 237.92 -24.58 236.94 -24.08 Q 235.95 -23.58 235.36 -22.63 Q 234.77 -21.68 234.51 -20.34 Q 234.26 -19.01 234.26 -17.38 L 234.26 -17.38 Z M 270.95 -25.76 L 270.95 0 L 260.02 0 L 260.02 -32.76 L 270.25 -32.76 L 270.95 -25.76 Z M 269.62 -17.38 L 267.16 -17.17 Q 267.13 -21.89 268.56 -25.54 Q 269.98 -29.18 272.81 -31.27 Q 275.64 -33.36 279.79 -33.36 L 279.79 -33.36 Q 284.03 -33.36 286.66 -30.68 Q 289.29 -28 289.29 -21.86 L 289.29 -21.86 L 289.29 0 L 278.36 0 L 278.36 -20.31 Q 278.36 -22.19 277.96 -23.1 Q 277.55 -24.01 276.76 -24.29 Q 275.97 -24.58 274.82 -24.58 L 274.82 -24.58 Q 273.61 -24.58 272.64 -24.08 Q 271.67 -23.58 270.99 -22.63 Q 270.31 -21.68 269.96 -20.34 Q 269.62 -19.01 269.62 -17.38 L 269.62 -17.38 Z M 288.02 -16.71 L 285.05 -16.77 Q 285.02 -21.65 286.39 -25.38 Q 287.75 -29.12 290.52 -31.24 Q 293.29 -33.36 297.44 -33.36 L 297.44 -33.36 Q 300.43 -33.36 302.73 -32.17 Q 305.04 -30.97 306.35 -28.14 Q 307.67 -25.31 307.67 -20.43 L 307.67 -20.43 L 307.67 0 L 296.71 0 L 296.71 -20.43 Q 296.71 -22.22 296.29 -23.1 Q 295.86 -23.98 295.09 -24.28 Q 294.32 -24.58 293.2 -24.58 L 293.2 -24.58 Q 291.87 -24.58 290.9 -24.02 Q 289.93 -23.46 289.29 -22.42 Q 288.66 -21.37 288.34 -19.92 Q 288.02 -18.47 288.02 -16.71 L 288.02 -16.71 Z M 329.34 0.61 L 329.34 0.61 Q 323.9 0.61 320.07 -1.6 Q 316.24 -3.81 314.24 -7.43 Q 312.24 -11.05 312.24 -15.26 L 312.24 -15.26 L 312.24 -16.38 Q 312.24 -21.07 314 -24.93 Q 315.75 -28.79 319.29 -31.08 Q 322.84 -33.36 328.19 -33.36 L 328.19 -33.36 Q 332.95 -33.36 336.31 -31.41 Q 339.67 -29.46 341.47 -25.84 Q 343.27 -22.22 343.27 -17.2 L 343.27 -17.2 L 343.27 -12.62 L 316.33 -12.62 L 316.33 -19.62 L 332.61 -19.62 L 332.61 -20.5 Q 332.64 -21.92 332.13 -22.83 Q 331.62 -23.73 330.6 -24.16 Q 329.59 -24.58 328.1 -24.58 L 328.1 -24.58 Q 325.98 -24.58 324.92 -23.4 Q 323.87 -22.22 323.5 -20.36 Q 323.14 -18.5 323.14 -16.38 L 323.14 -16.38 L 323.14 -15.26 Q 323.14 -13.08 323.96 -11.49 Q 324.77 -9.9 326.33 -9.05 Q 327.89 -8.2 330.07 -8.2 L 330.07 -8.2 Q 332.07 -8.2 334.08 -8.9 Q 336.1 -9.6 337.49 -11.35 L 337.49 -11.35 L 342.39 -5.09 Q 340.88 -2.97 337.5 -1.18 Q 334.13 0.61 329.34 0.61 Z M 357.8 -25.76 L 357.8 0 L 346.9 0 L 346.9 -32.76 L 357.11 -32.76 L 357.8 -25.76 Z M 356.53 -17.38 L 354.02 -17.17 Q 353.99 -22.37 355.56 -25.99 Q 357.14 -29.61 360 -31.48 Q 362.86 -33.36 366.64 -33.36 L 366.64 -33.36 Q 369.67 -33.36 371.97 -32.15 Q 374.27 -30.94 375.59 -28.12 Q 376.9 -25.31 376.9 -20.43 L 376.9 -20.43 L 376.9 0 L 365.95 0 L 365.95 -20.46 Q 365.95 -22.22 365.45 -23.1 Q 364.95 -23.98 363.99 -24.28 Q 363.04 -24.58 361.65 -24.58 L 361.65 -24.58 Q 360.19 -24.58 359.21 -24.08 Q 358.23 -23.58 357.64 -22.63 Q 357.04 -21.68 356.79 -20.34 Q 356.53 -19.01 356.53 -17.38 L 356.53 -17.38 Z M 399.97 -32.76 L 399.97 -24.88 L 379.84 -24.88 L 379.84 -32.76 L 399.97 -32.76 Z M 383.84 -40.9 L 394.74 -40.9 L 394.74 -11.29 Q 394.74 -10.14 395.01 -9.49 Q 395.28 -8.84 395.99 -8.57 Q 396.7 -8.29 397.94 -8.29 L 397.94 -8.29 Q 398.79 -8.29 399.37 -8.33 Q 399.94 -8.36 400.43 -8.45 L 400.43 -8.45 L 400.4 -0.33 Q 399 0.15 397.58 0.38 Q 396.16 0.61 394.46 0.61 L 394.46 0.61 Q 391.07 0.61 388.7 -0.47 Q 386.32 -1.54 385.08 -3.83 Q 383.84 -6.12 383.84 -9.72 L 383.84 -9.72 L 383.84 -40.9 Z M 449.08 -9.14 L 449.08 0 L 426.92 0 L 426.92 -9.14 L 449.08 -9.14 Z M 430.91 -44.08 L 430.91 0 L 419.56 0 L 419.56 -44.08 L 430.91 -44.08 Z M 451.65 -16.08 L 451.65 -16.65 Q 451.65 -21.46 453.47 -25.23 Q 455.28 -29 458.82 -31.18 Q 462.37 -33.36 467.54 -33.36 L 467.54 -33.36 Q 472.78 -33.36 476.34 -31.18 Q 479.89 -29 481.7 -25.23 Q 483.5 -21.46 483.5 -16.65 L 483.5 -16.65 L 483.5 -16.08 Q 483.5 -11.29 481.7 -7.51 Q 479.89 -3.72 476.35 -1.56 Q 472.81 0.61 467.6 0.61 L 467.6 0.61 Q 462.4 0.61 458.84 -1.56 Q 455.28 -3.72 453.47 -7.51 Q 451.65 -11.29 451.65 -16.08 L 451.65 -16.08 Z M 462.58 -16.65 L 462.58 -16.08 Q 462.58 -13.83 462.99 -12.03 Q 463.4 -10.23 464.49 -9.2 Q 465.58 -8.17 467.6 -8.17 L 467.6 -8.17 Q 469.6 -8.17 470.69 -9.2 Q 471.78 -10.23 472.19 -12.03 Q 472.6 -13.83 472.6 -16.08 L 472.6 -16.08 L 472.6 -16.65 Q 472.6 -18.83 472.19 -20.63 Q 471.78 -22.43 470.69 -23.51 Q 469.6 -24.58 467.54 -24.58 L 467.54 -24.58 Q 465.54 -24.58 464.47 -23.51 Q 463.4 -22.43 462.99 -20.63 Q 462.58 -18.83 462.58 -16.65 L 462.58 -16.65 Z M 506.63 -8.05 L 506.63 -32.76 L 517.55 -32.76 L 517.55 0 L 507.35 0 L 506.63 -8.05 Z M 507.66 -14.77 L 510.41 -14.83 Q 510.41 -10.38 509.02 -6.9 Q 507.63 -3.42 504.96 -1.41 Q 502.3 0.61 498.51 0.61 L 498.51 0.61 Q 493.64 0.61 490.6 -2.23 Q 487.55 -5.06 487.55 -11.53 L 487.55 -11.53 L 487.55 -32.76 L 498.45 -32.76 L 498.45 -11.47 Q 498.45 -10.44 498.86 -9.7 Q 499.27 -8.96 500.1 -8.57 Q 500.93 -8.17 502.15 -8.17 L 502.15 -8.17 Q 504.29 -8.17 505.49 -9.02 Q 506.69 -9.87 507.17 -11.37 Q 507.66 -12.87 507.66 -14.77 L 507.66 -14.77 Z M 533.51 -25.76 L 533.51 0 L 522.61 0 L 522.61 -32.76 L 532.81 -32.76 L 533.51 -25.76 Z M 532.24 -17.38 L 529.72 -17.17 Q 529.69 -22.37 531.27 -25.99 Q 532.84 -29.61 535.7 -31.48 Q 538.56 -33.36 542.35 -33.36 L 542.35 -33.36 Q 545.38 -33.36 547.68 -32.15 Q 549.98 -30.94 551.29 -28.12 Q 552.61 -25.31 552.61 -20.43 L 552.61 -20.43 L 552.61 0 L 541.65 0 L 541.65 -20.46 Q 541.65 -22.22 541.15 -23.1 Q 540.65 -23.98 539.7 -24.28 Q 538.75 -24.58 537.35 -24.58 L 537.35 -24.58 Q 535.9 -24.58 534.92 -24.08 Q 533.93 -23.58 533.34 -22.63 Q 532.75 -21.68 532.49 -20.34 Q 532.24 -19.01 532.24 -17.38 L 532.24 -17.38 Z M 578.37 -32.76 L 588.27 -32.76 L 588.27 -1.42 Q 588.27 3.18 586.14 6.37 Q 584 9.57 580.16 11.22 Q 576.32 12.87 571.23 12.87 L 571.23 12.87 Q 569.05 12.87 566.73 12.32 Q 564.42 11.78 562.37 10.72 Q 560.33 9.66 558.97 8.14 L 558.97 8.14 L 563.51 1.39 Q 564.66 2.57 566.52 3.53 Q 568.38 4.48 570.87 4.48 L 570.87 4.48 Q 574.01 4.48 575.66 2.89 Q 577.31 1.3 577.31 -1.54 L 577.31 -1.54 L 577.31 -24.88 L 578.37 -32.76 Z M 556.73 -15.98 L 556.73 -16.62 Q 556.73 -21.58 558.36 -25.35 Q 560 -29.12 563.04 -31.24 Q 566.08 -33.36 570.26 -33.36 L 570.26 -33.36 Q 573.68 -33.36 575.85 -32.01 Q 578.01 -30.67 579.3 -28.28 Q 580.58 -25.88 581.3 -22.72 Q 582.01 -19.56 582.52 -15.92 L 582.52 -15.92 L 582.52 -16.29 Q 581.83 -11.81 580.46 -7.95 Q 579.1 -4.09 576.63 -1.74 Q 574.17 0.61 570.2 0.61 L 570.2 0.61 Q 566.05 0.61 563.03 -1.56 Q 560 -3.72 558.36 -7.48 Q 556.73 -11.23 556.73 -15.98 L 556.73 -15.98 Z M 567.66 -16.62 L 567.66 -15.98 Q 567.66 -13.77 568.25 -12 Q 568.84 -10.23 570.02 -9.2 Q 571.2 -8.17 573.02 -8.17 L 573.02 -8.17 Q 575.1 -8.17 576.38 -9.05 Q 577.65 -9.93 578.19 -11.59 Q 578.74 -13.26 578.59 -15.59 L 578.59 -15.59 L 578.59 -16.62 Q 578.68 -18.71 578.39 -20.22 Q 578.1 -21.74 577.42 -22.69 Q 576.74 -23.64 575.66 -24.11 Q 574.59 -24.58 573.08 -24.58 L 573.08 -24.58 Q 571.32 -24.58 570.11 -23.55 Q 568.9 -22.52 568.28 -20.74 Q 567.66 -18.95 567.66 -16.62 L 567.66 -16.62 Z M 609.92 0.61 L 609.92 0.61 Q 604.47 0.61 600.64 -1.6 Q 596.81 -3.81 594.81 -7.43 Q 592.81 -11.05 592.81 -15.26 L 592.81 -15.26 L 592.81 -16.38 Q 592.81 -21.07 594.57 -24.93 Q 596.33 -28.79 599.87 -31.08 Q 603.41 -33.36 608.77 -33.36 L 608.77 -33.36 Q 613.52 -33.36 616.88 -31.41 Q 620.24 -29.46 622.04 -25.84 Q 623.84 -22.22 623.84 -17.2 L 623.84 -17.2 L 623.84 -12.62 L 596.9 -12.62 L 596.9 -19.62 L 613.19 -19.62 L 613.19 -20.5 Q 613.22 -21.92 612.7 -22.83 Q 612.19 -23.73 611.18 -24.16 Q 610.16 -24.58 608.68 -24.58 L 608.68 -24.58 Q 606.56 -24.58 605.5 -23.4 Q 604.44 -22.22 604.08 -20.36 Q 603.71 -18.5 603.71 -16.38 L 603.71 -16.38 L 603.71 -15.26 Q 603.71 -13.08 604.53 -11.49 Q 605.35 -9.9 606.91 -9.05 Q 608.47 -8.2 610.65 -8.2 L 610.65 -8.2 Q 612.64 -8.2 614.66 -8.9 Q 616.67 -9.6 618.06 -11.35 L 618.06 -11.35 L 622.97 -5.09 Q 621.45 -2.97 618.08 -1.18 Q 614.7 0.61 609.92 0.61 Z" stroke-linecap="round" />
</g>
</g>
</g>
<g transform="matrix(1.9211538461538462 0 0 1.9211538461538462 640.4069701324581 826.2832003821213)" id="tagline-ef33121c-3547-410c-96f3-b8fbce1e7390-logo"  >
<g style=""  paint-order="stroke"   >
		<g transform="matrix(1 0 0 1 0 0)" id="tagline-ef33121c-3547-410c-96f3-b8fbce1e7390-logo-path-0"  >
<path style="stroke: none; stroke-width: 0; stroke-dasharray: none; stroke-linecap: butt; stroke-dashoffset: 0; stroke-linejoin: miter; stroke-miterlimit: 4; fill: rgb(108,108,108); fill-rule: nonzero; opacity: 1;"  paint-order="stroke"  transform=" translate(-245.23499999999999, 8.445)" d="M 9.59 -18.34 L 0.63 -18.34 L 0.63 -22.41 L 22.61 -22.41 L 22.61 -18.34 L 13.66 -18.34 L 13.66 0 L 9.59 0 L 9.59 -18.34 Z M 26.64 0 L 22.58 0 L 22.58 -24.03 L 26.64 -24.03 L 26.64 0 Z M 35.61 -12.83 L 28.28 -12.83 L 28.28 -16.89 L 35.61 -16.89 Q 36.19 -16.89 36.83 -16.76 Q 37.47 -16.63 38.1 -16.34 Q 38.74 -16.06 39.31 -15.62 Q 39.89 -15.17 40.33 -14.54 Q 40.77 -13.91 41.03 -13.08 Q 41.3 -12.25 41.3 -11.2 L 41.3 -11.2 L 41.3 0 L 37.24 0 L 37.24 -11.2 Q 37.24 -12 36.83 -12.41 Q 36.42 -12.83 35.61 -12.83 L 35.61 -12.83 Z M 42.05 -5.59 L 42.05 -5.59 L 42.05 -11.3 Q 42.05 -12.14 42.35 -13.12 Q 42.64 -14.09 43.31 -14.93 Q 43.97 -15.77 45.04 -16.33 Q 46.11 -16.89 47.64 -16.89 L 47.64 -16.89 L 54.97 -16.89 Q 55.81 -16.89 56.79 -16.59 Q 57.77 -16.3 58.6 -15.63 Q 59.44 -14.97 60 -13.9 Q 60.56 -12.83 60.56 -11.3 L 60.56 -11.3 Q 60.56 -10.45 60.27 -9.48 Q 59.97 -8.5 59.31 -7.66 Q 58.64 -6.83 57.57 -6.27 Q 56.5 -5.7 54.97 -5.7 L 54.97 -5.7 L 47.64 -5.7 L 47.64 -9.56 L 54.97 -9.56 Q 55.8 -9.56 56.25 -10.07 Q 56.71 -10.58 56.71 -11.33 L 56.71 -11.33 Q 56.71 -12.13 56.2 -12.58 Q 55.69 -13.03 54.97 -13.03 L 54.97 -13.03 L 47.64 -13.03 Q 46.81 -13.03 46.36 -12.52 Q 45.91 -12.02 45.91 -11.27 L 45.91 -11.27 L 45.91 -5.59 Q 45.91 -4.78 46.42 -4.33 Q 46.92 -3.88 47.67 -3.88 L 47.67 -3.88 L 54.97 -3.88 L 54.97 0 L 47.64 0 Q 46.8 0 45.82 -0.3 Q 44.85 -0.59 44.01 -1.26 Q 43.17 -1.92 42.61 -2.99 Q 42.05 -4.06 42.05 -5.59 Z M 72.91 0 L 68.85 0 L 68.85 -16.7 Q 68.85 -18.27 69.42 -19.36 Q 69.99 -20.45 70.84 -21.13 Q 71.69 -21.8 72.69 -22.1 Q 73.69 -22.41 74.54 -22.41 L 74.54 -22.41 L 83.72 -22.41 Q 85.1 -22.41 86.19 -22.05 Q 87.29 -21.7 88.12 -21.12 Q 88.96 -20.53 89.54 -19.77 Q 90.13 -19 90.51 -18.16 Q 90.89 -17.33 91.07 -16.48 Q 91.24 -15.63 91.24 -14.88 L 91.24 -14.88 L 91.24 -13.03 Q 91.24 -11.64 90.89 -10.55 Q 90.55 -9.45 89.96 -8.62 Q 89.38 -7.78 88.61 -7.19 Q 87.85 -6.59 87.01 -6.22 Q 86.18 -5.84 85.32 -5.67 Q 84.47 -5.5 83.72 -5.5 L 83.72 -5.5 L 74.54 -5.5 L 74.54 -9.56 L 83.72 -9.56 Q 84.5 -9.63 85.14 -9.88 Q 85.77 -10.14 86.22 -10.58 Q 86.68 -11.02 86.93 -11.63 Q 87.18 -12.25 87.18 -13.03 L 87.18 -13.03 L 87.18 -14.88 Q 87.1 -15.64 86.85 -16.28 Q 86.6 -16.92 86.17 -17.38 Q 85.74 -17.83 85.13 -18.09 Q 84.52 -18.34 83.72 -18.34 L 83.72 -18.34 L 74.57 -18.34 Q 73.75 -18.34 73.33 -17.92 Q 72.91 -17.5 72.91 -16.7 L 72.91 -16.7 L 72.91 0 Z M 91.29 -5.59 L 91.29 -5.59 L 91.29 -11.3 Q 91.29 -12.14 91.58 -13.12 Q 91.88 -14.09 92.54 -14.93 Q 93.21 -15.77 94.28 -16.33 Q 95.35 -16.89 96.88 -16.89 L 96.88 -16.89 L 104.21 -16.89 Q 105.05 -16.89 106.03 -16.59 Q 107.01 -16.3 107.84 -15.63 Q 108.68 -14.97 109.24 -13.9 Q 109.8 -12.83 109.8 -11.3 L 109.8 -11.3 Q 109.8 -10.45 109.51 -9.48 Q 109.21 -8.5 108.54 -7.66 Q 107.88 -6.83 106.81 -6.27 Q 105.74 -5.7 104.21 -5.7 L 104.21 -5.7 L 96.88 -5.7 L 96.88 -9.56 L 104.21 -9.56 Q 105.04 -9.56 105.49 -10.07 Q 105.94 -10.58 105.94 -11.33 L 105.94 -11.33 Q 105.94 -12.13 105.43 -12.58 Q 104.93 -13.03 104.21 -13.03 L 104.21 -13.03 L 96.88 -13.03 Q 96.05 -13.03 95.6 -12.52 Q 95.15 -12.02 95.15 -11.27 L 95.15 -11.27 L 95.15 -5.59 Q 95.15 -4.78 95.65 -4.33 Q 96.16 -3.88 96.91 -3.88 L 96.91 -3.88 L 104.21 -3.88 L 104.21 0 L 96.88 0 Q 96.04 0 95.06 -0.3 Q 94.08 -0.59 93.25 -1.26 Q 92.41 -1.92 91.85 -2.99 Q 91.29 -4.06 91.29 -5.59 Z M 113.88 0 L 109.82 0 L 109.82 -11.2 Q 109.82 -12.25 110.08 -13.08 Q 110.35 -13.91 110.8 -14.54 Q 111.24 -15.17 111.82 -15.62 Q 112.4 -16.06 113.03 -16.34 Q 113.66 -16.63 114.31 -16.76 Q 114.96 -16.89 115.52 -16.89 L 115.52 -16.89 L 124.69 -16.89 L 124.69 -12.83 L 115.55 -12.83 Q 114.72 -12.83 114.3 -12.41 Q 113.88 -12 113.88 -11.2 L 113.88 -11.2 L 113.88 0 Z M 128.87 0 L 124.8 0 L 124.8 -18.53 Q 124.8 -19.58 125.07 -20.41 Q 125.34 -21.23 125.78 -21.87 Q 126.23 -22.5 126.8 -22.95 Q 127.38 -23.39 128.01 -23.67 Q 128.65 -23.95 129.29 -24.09 Q 129.93 -24.22 130.51 -24.22 L 130.51 -24.22 L 139.69 -24.22 L 139.69 -20.16 L 130.54 -20.16 Q 129.71 -20.16 129.29 -19.74 Q 128.87 -19.33 128.87 -18.53 L 128.87 -18.53 L 128.87 0 Z M 139.69 -12.83 L 130.51 -12.83 L 130.51 -16.89 L 139.69 -16.89 L 139.69 -12.83 Z M 139.32 -5.59 L 139.32 -5.59 L 139.32 -11.3 Q 139.32 -12.14 139.62 -13.12 Q 139.91 -14.09 140.58 -14.93 Q 141.24 -15.77 142.31 -16.33 Q 143.38 -16.89 144.91 -16.89 L 144.91 -16.89 L 152.24 -16.89 Q 153.09 -16.89 154.06 -16.59 Q 155.04 -16.3 155.88 -15.63 Q 156.71 -14.97 157.27 -13.9 Q 157.84 -12.83 157.84 -11.3 L 157.84 -11.3 Q 157.84 -10.45 157.54 -9.48 Q 157.24 -8.5 156.58 -7.66 Q 155.91 -6.83 154.84 -6.27 Q 153.77 -5.7 152.24 -5.7 L 152.24 -5.7 L 144.91 -5.7 L 144.91 -9.56 L 152.24 -9.56 Q 153.07 -9.56 153.52 -10.07 Q 153.98 -10.58 153.98 -11.33 L 153.98 -11.33 Q 153.98 -12.13 153.47 -12.58 Q 152.96 -13.03 152.24 -13.03 L 152.24 -13.03 L 144.91 -13.03 Q 144.09 -13.03 143.63 -12.52 Q 143.18 -12.02 143.18 -11.27 L 143.18 -11.27 L 143.18 -5.59 Q 143.18 -4.78 143.69 -4.33 Q 144.2 -3.88 144.95 -3.88 L 144.95 -3.88 L 152.24 -3.88 L 152.24 0 L 144.91 0 Q 144.07 0 143.09 -0.3 Q 142.12 -0.59 141.28 -1.26 Q 140.45 -1.92 139.88 -2.99 Q 139.32 -4.06 139.32 -5.59 Z M 157.6 -5.7 L 157.6 -5.7 L 157.6 -11.2 Q 157.6 -11.78 157.74 -12.42 Q 157.87 -13.06 158.15 -13.7 Q 158.43 -14.33 158.88 -14.91 Q 159.32 -15.48 159.95 -15.92 Q 160.59 -16.36 161.42 -16.63 Q 162.24 -16.89 163.29 -16.89 L 163.29 -16.89 L 174.31 -16.89 L 174.31 -12.83 L 163.29 -12.83 Q 162.49 -12.83 162.08 -12.42 Q 161.67 -12.02 161.67 -11.17 L 161.67 -11.17 L 161.67 -5.7 Q 161.67 -4.91 162.09 -4.48 Q 162.51 -4.06 163.32 -4.06 L 163.32 -4.06 L 174.31 -4.06 L 174.31 0 L 163.29 0 Q 162.45 0 161.45 -0.3 Q 160.45 -0.59 159.59 -1.27 Q 158.74 -1.95 158.17 -3.04 Q 157.6 -4.13 157.6 -5.7 Z M 179.2 -12.83 L 173.92 -12.83 L 173.92 -16.89 L 179.2 -16.89 L 179.2 -22.41 L 183.31 -22.41 L 183.31 -16.89 L 190.4 -16.89 L 190.4 -12.83 L 183.31 -12.83 L 183.31 0 L 179.2 0 L 179.2 -12.83 Z M 198.14 -5.7 L 198.14 -5.7 L 198.14 -16.7 Q 198.14 -17.27 198.27 -17.91 Q 198.4 -18.56 198.68 -19.2 Q 198.97 -19.83 199.42 -20.41 Q 199.87 -20.98 200.5 -21.43 Q 201.14 -21.88 201.97 -22.14 Q 202.79 -22.41 203.84 -22.41 L 203.84 -22.41 L 220.36 -22.41 L 220.36 -18.34 L 203.84 -18.34 Q 203.04 -18.34 202.62 -17.92 Q 202.2 -17.5 202.2 -16.67 L 202.2 -16.67 L 202.2 -5.7 Q 202.2 -4.92 202.63 -4.49 Q 203.06 -4.06 203.84 -4.06 L 203.84 -4.06 L 216.48 -4.06 L 216.48 -9.16 L 205.67 -9.16 L 205.67 -13.25 L 218.5 -13.25 Q 218.93 -13.25 219.31 -13.09 Q 219.68 -12.92 219.96 -12.64 Q 220.23 -12.36 220.39 -11.99 Q 220.54 -11.63 220.54 -11.2 L 220.54 -11.2 L 220.54 -2.05 Q 220.54 -1.61 220.39 -1.23 Q 220.23 -0.86 219.96 -0.59 Q 219.68 -0.31 219.31 -0.16 Q 218.93 0 218.5 0 L 218.5 0 L 203.84 0 Q 203.28 0 202.63 -0.13 Q 201.98 -0.27 201.35 -0.55 Q 200.72 -0.83 200.14 -1.27 Q 199.56 -1.72 199.11 -2.35 Q 198.67 -2.98 198.4 -3.82 Q 198.14 -4.66 198.14 -5.7 Z M 220.62 -5.59 L 220.62 -5.59 Q 220.62 -6.44 220.92 -7.42 Q 221.22 -8.41 221.88 -9.24 Q 222.54 -10.08 223.61 -10.64 Q 224.68 -11.2 226.22 -11.2 L 226.22 -11.2 L 233.54 -11.2 L 233.54 -7.33 L 226.22 -7.33 Q 225.39 -7.33 224.93 -6.82 Q 224.48 -6.31 224.48 -5.56 L 224.48 -5.56 Q 224.48 -4.77 225.01 -4.32 Q 225.53 -3.88 226.25 -3.88 L 226.25 -3.88 L 233.54 -3.88 Q 234.37 -3.88 234.83 -4.38 Q 235.28 -4.88 235.28 -5.63 L 235.28 -5.63 L 235.28 -11.3 Q 235.28 -12.09 234.79 -12.56 Q 234.29 -13.03 233.54 -13.03 L 233.54 -13.03 L 224.62 -13.03 L 224.62 -16.89 L 233.54 -16.89 Q 234.39 -16.89 235.36 -16.59 Q 236.34 -16.3 237.18 -15.63 Q 238.01 -14.97 238.58 -13.9 Q 239.14 -12.83 239.14 -11.3 L 239.14 -11.3 L 239.14 -5.59 Q 239.14 -4.75 238.84 -3.77 Q 238.54 -2.8 237.88 -1.96 Q 237.22 -1.13 236.15 -0.56 Q 235.08 0 233.54 0 L 233.54 0 L 226.22 0 Q 225.37 0 224.4 -0.3 Q 223.42 -0.59 222.58 -1.26 Q 221.75 -1.92 221.18 -2.99 Q 220.62 -4.06 220.62 -5.59 Z M 244.05 0 L 239.98 0 L 239.98 -14.88 Q 239.98 -15.3 240.14 -15.66 Q 240.3 -16.03 240.58 -16.3 Q 240.86 -16.58 241.23 -16.73 Q 241.61 -16.89 242.03 -16.89 L 242.03 -16.89 L 249.36 -16.89 Q 250.2 -16.89 251.17 -16.59 Q 252.14 -16.3 253.01 -15.64 L 253.01 -15.64 L 253.01 -16.89 L 258.51 -16.89 Q 259.09 -16.89 259.73 -16.76 Q 260.37 -16.63 261.01 -16.34 Q 261.64 -16.06 262.22 -15.62 Q 262.8 -15.17 263.23 -14.54 Q 263.67 -13.91 263.94 -13.08 Q 264.2 -12.25 264.2 -11.2 L 264.2 -11.2 L 264.2 0 L 260.14 0 L 260.14 -11.2 Q 260.14 -12 259.74 -12.41 Q 259.34 -12.83 258.51 -12.83 L 258.51 -12.83 L 254.86 -12.83 Q 255.06 -12.08 255.06 -11.2 L 255.06 -11.2 L 255.06 0 L 251 0 L 251 -11.2 Q 251 -12 250.58 -12.41 Q 250.15 -12.83 249.33 -12.83 L 249.33 -12.83 L 244.05 -12.83 L 244.05 0 Z M 269.44 0 L 265.37 0 L 265.37 -16.89 L 269.44 -16.89 L 269.44 0 Z M 269.44 -20.36 L 265.37 -20.36 L 265.37 -24.03 L 269.44 -24.03 L 269.44 -20.36 Z M 274.77 0 L 270.7 0 L 270.7 -14.88 Q 270.7 -15.3 270.86 -15.66 Q 271.02 -16.03 271.3 -16.3 Q 271.58 -16.58 271.95 -16.73 Q 272.33 -16.89 272.75 -16.89 L 272.75 -16.89 L 281.91 -16.89 Q 282.67 -16.89 283.52 -16.72 Q 284.38 -16.55 285.21 -16.16 Q 286.05 -15.78 286.81 -15.2 Q 287.56 -14.61 288.15 -13.77 Q 288.73 -12.94 289.08 -11.84 Q 289.42 -10.75 289.42 -9.38 L 289.42 -9.38 L 289.42 0 L 285.36 0 L 285.36 -9.38 Q 285.36 -10.17 285.09 -10.8 Q 284.81 -11.44 284.34 -11.89 Q 283.88 -12.34 283.24 -12.59 Q 282.61 -12.83 281.88 -12.83 L 281.88 -12.83 L 274.77 -12.83 L 274.77 0 Z M 290.02 -5.7 L 290.02 -5.7 L 290.02 -11.2 Q 290.02 -11.78 290.15 -12.42 Q 290.28 -13.06 290.56 -13.7 Q 290.85 -14.33 291.29 -14.91 Q 291.74 -15.48 292.37 -15.92 Q 293 -16.36 293.83 -16.63 Q 294.66 -16.89 295.7 -16.89 L 295.7 -16.89 L 303.03 -16.89 Q 303.61 -16.89 304.26 -16.76 Q 304.91 -16.63 305.54 -16.34 Q 306.17 -16.06 306.75 -15.62 Q 307.33 -15.17 307.77 -14.54 Q 308.2 -13.91 308.47 -13.08 Q 308.74 -12.25 308.74 -11.2 L 308.74 -11.2 L 308.74 1.63 Q 308.74 2.67 308.47 3.51 Q 308.2 4.34 307.77 4.98 Q 307.33 5.61 306.75 6.05 Q 306.17 6.5 305.54 6.78 Q 304.91 7.06 304.26 7.2 Q 303.61 7.33 303.03 7.33 L 303.03 7.33 L 295.7 7.33 L 295.7 3.27 L 303.03 3.27 Q 303.86 3.27 304.27 2.84 Q 304.67 2.42 304.67 1.63 L 304.67 1.63 L 304.67 -11.2 Q 304.67 -12 304.27 -12.41 Q 303.86 -12.83 303.03 -12.83 L 303.03 -12.83 L 295.7 -12.83 Q 294.95 -12.83 294.52 -12.37 Q 294.08 -11.91 294.08 -11.2 L 294.08 -11.2 L 294.08 -5.7 Q 294.08 -4.91 294.5 -4.48 Q 294.92 -4.06 295.74 -4.06 L 295.74 -4.06 L 303.03 -4.06 L 303.03 0 L 295.7 0 Q 295.13 0 294.49 -0.13 Q 293.85 -0.27 293.21 -0.55 Q 292.58 -0.83 292 -1.27 Q 291.42 -1.72 290.99 -2.35 Q 290.55 -2.98 290.28 -3.82 Q 290.02 -4.66 290.02 -5.7 Z M 317.97 -5.7 L 317.97 -5.7 L 317.97 -20.36 Q 317.97 -20.78 318.13 -21.16 Q 318.28 -21.53 318.56 -21.81 Q 318.83 -22.09 319.21 -22.25 Q 319.58 -22.41 320.02 -22.41 L 320.02 -22.41 L 338.32 -22.41 L 338.32 -18.34 L 322.03 -18.34 L 322.03 -5.7 Q 322.03 -4.91 322.46 -4.48 Q 322.88 -4.06 323.69 -4.06 L 323.69 -4.06 L 338.32 -4.06 L 338.32 0 L 323.66 0 Q 322.82 0 321.82 -0.3 Q 320.82 -0.59 319.96 -1.27 Q 319.11 -1.95 318.54 -3.04 Q 317.97 -4.13 317.97 -5.7 Z M 336.49 -9.16 L 323.66 -9.16 L 323.66 -13.25 L 336.49 -13.25 L 336.49 -9.16 Z M 342.97 0 L 337.36 0 L 345.57 -8.95 L 338.3 -16.89 L 343.86 -16.89 L 348.35 -12 L 352.86 -16.89 L 358.46 -16.89 L 351.16 -8.92 L 359.38 0 L 353.79 0 L 348.38 -5.89 L 342.97 0 Z M 362.76 5.28 L 358.69 5.28 L 358.69 -11.2 Q 358.69 -12.25 358.96 -13.08 Q 359.22 -13.91 359.67 -14.54 Q 360.11 -15.17 360.69 -15.62 Q 361.27 -16.06 361.9 -16.34 Q 362.54 -16.63 363.19 -16.76 Q 363.83 -16.89 364.4 -16.89 L 364.4 -16.89 L 371.72 -16.89 Q 372.77 -16.89 373.6 -16.63 Q 374.43 -16.36 375.06 -15.92 Q 375.69 -15.48 376.14 -14.91 Q 376.58 -14.33 376.86 -13.7 Q 377.15 -13.06 377.28 -12.42 Q 377.41 -11.78 377.41 -11.2 L 377.41 -11.2 L 377.41 -5.7 Q 377.41 -4.66 377.15 -3.82 Q 376.88 -2.98 376.44 -2.35 Q 376.01 -1.72 375.43 -1.27 Q 374.85 -0.83 374.22 -0.55 Q 373.58 -0.27 372.94 -0.13 Q 372.3 0 371.72 0 L 371.72 0 L 364.4 0 L 364.4 -4.06 L 371.72 -4.06 Q 372.54 -4.06 372.94 -4.48 Q 373.35 -4.91 373.35 -5.7 L 373.35 -5.7 L 373.35 -11.17 Q 373.35 -12.02 372.94 -12.42 Q 372.52 -12.83 371.72 -12.83 L 371.72 -12.83 L 364.43 -12.83 Q 363.6 -12.83 363.18 -12.41 Q 362.76 -12 362.76 -11.2 L 362.76 -11.2 L 362.76 5.28 Z M 377.91 -5.59 L 377.91 -5.59 L 377.91 -11.3 Q 377.91 -12.14 378.21 -13.12 Q 378.51 -14.09 379.17 -14.93 Q 379.83 -15.77 380.9 -16.33 Q 381.98 -16.89 383.51 -16.89 L 383.51 -16.89 L 390.83 -16.89 Q 391.68 -16.89 392.65 -16.59 Q 393.63 -16.3 394.47 -15.63 Q 395.3 -14.97 395.87 -13.9 Q 396.43 -12.83 396.43 -11.3 L 396.43 -11.3 Q 396.43 -10.45 396.13 -9.48 Q 395.83 -8.5 395.17 -7.66 Q 394.51 -6.83 393.44 -6.27 Q 392.37 -5.7 390.83 -5.7 L 390.83 -5.7 L 383.51 -5.7 L 383.51 -9.56 L 390.83 -9.56 Q 391.66 -9.56 392.12 -10.07 Q 392.57 -10.58 392.57 -11.33 L 392.57 -11.33 Q 392.57 -12.13 392.06 -12.58 Q 391.55 -13.03 390.83 -13.03 L 390.83 -13.03 L 383.51 -13.03 Q 382.68 -13.03 382.23 -12.52 Q 381.77 -12.02 381.77 -11.27 L 381.77 -11.27 L 381.77 -5.59 Q 381.77 -4.78 382.28 -4.33 Q 382.79 -3.88 383.54 -3.88 L 383.54 -3.88 L 390.83 -3.88 L 390.83 0 L 383.51 0 Q 382.66 0 381.69 -0.3 Q 380.71 -0.59 379.87 -1.26 Q 379.04 -1.92 378.48 -2.99 Q 377.91 -4.06 377.91 -5.59 Z M 400.51 0 L 396.44 0 L 396.44 -11.2 Q 396.44 -12.25 396.71 -13.08 Q 396.98 -13.91 397.42 -14.54 Q 397.87 -15.17 398.44 -15.62 Q 399.02 -16.06 399.66 -16.34 Q 400.29 -16.63 400.94 -16.76 Q 401.59 -16.89 402.15 -16.89 L 402.15 -16.89 L 411.32 -16.89 L 411.32 -12.83 L 402.18 -12.83 Q 401.35 -12.83 400.93 -12.41 Q 400.51 -12 400.51 -11.2 L 400.51 -11.2 L 400.51 0 Z M 415.49 0 L 411.43 0 L 411.43 -16.89 L 415.49 -16.89 L 415.49 0 Z M 415.49 -20.36 L 411.43 -20.36 L 411.43 -24.03 L 415.49 -24.03 L 415.49 -20.36 Z M 416.42 -5.59 L 416.42 -5.59 L 416.42 -11.3 Q 416.42 -12.14 416.71 -13.12 Q 417.01 -14.09 417.67 -14.93 Q 418.34 -15.77 419.41 -16.33 Q 420.48 -16.89 422.01 -16.89 L 422.01 -16.89 L 429.34 -16.89 Q 430.18 -16.89 431.16 -16.59 Q 432.13 -16.3 432.97 -15.63 Q 433.81 -14.97 434.37 -13.9 Q 434.93 -12.83 434.93 -11.3 L 434.93 -11.3 Q 434.93 -10.45 434.63 -9.48 Q 434.34 -8.5 433.67 -7.66 Q 433.01 -6.83 431.94 -6.27 Q 430.87 -5.7 429.34 -5.7 L 429.34 -5.7 L 422.01 -5.7 L 422.01 -9.56 L 429.34 -9.56 Q 430.17 -9.56 430.62 -10.07 Q 431.07 -10.58 431.07 -11.33 L 431.07 -11.33 Q 431.07 -12.13 430.56 -12.58 Q 430.06 -13.03 429.34 -13.03 L 429.34 -13.03 L 422.01 -13.03 Q 421.18 -13.03 420.73 -12.52 Q 420.27 -12.02 420.27 -11.27 L 420.27 -11.27 L 420.27 -5.59 Q 420.27 -4.78 420.78 -4.33 Q 421.29 -3.88 422.04 -3.88 L 422.04 -3.88 L 429.34 -3.88 L 429.34 0 L 422.01 0 Q 421.17 0 420.19 -0.3 Q 419.21 -0.59 418.38 -1.26 Q 417.54 -1.92 416.98 -2.99 Q 416.42 -4.06 416.42 -5.59 Z M 439.1 0 L 435.04 0 L 435.04 -14.88 Q 435.04 -15.3 435.2 -15.66 Q 435.35 -16.03 435.64 -16.3 Q 435.92 -16.58 436.29 -16.73 Q 436.67 -16.89 437.09 -16.89 L 437.09 -16.89 L 446.24 -16.89 Q 447.01 -16.89 447.86 -16.72 Q 448.71 -16.55 449.55 -16.16 Q 450.39 -15.78 451.14 -15.2 Q 451.9 -14.61 452.49 -13.77 Q 453.07 -12.94 453.42 -11.84 Q 453.76 -10.75 453.76 -9.38 L 453.76 -9.38 L 453.76 0 L 449.7 0 L 449.7 -9.38 Q 449.7 -10.17 449.42 -10.8 Q 449.15 -11.44 448.68 -11.89 Q 448.21 -12.34 447.58 -12.59 Q 446.95 -12.83 446.21 -12.83 L 446.21 -12.83 L 439.1 -12.83 L 439.1 0 Z M 454.36 -5.7 L 454.36 -5.7 L 454.36 -11.2 Q 454.36 -11.78 454.49 -12.42 Q 454.62 -13.06 454.9 -13.7 Q 455.18 -14.33 455.63 -14.91 Q 456.07 -15.48 456.71 -15.92 Q 457.34 -16.36 458.17 -16.63 Q 459 -16.89 460.04 -16.89 L 460.04 -16.89 L 471.06 -16.89 L 471.06 -12.83 L 460.04 -12.83 Q 459.25 -12.83 458.83 -12.42 Q 458.42 -12.02 458.42 -11.17 L 458.42 -11.17 L 458.42 -5.7 Q 458.42 -4.91 458.84 -4.48 Q 459.26 -4.06 460.07 -4.06 L 460.07 -4.06 L 471.06 -4.06 L 471.06 0 L 460.04 0 Q 459.2 0 458.2 -0.3 Q 457.2 -0.59 456.35 -1.27 Q 455.5 -1.95 454.93 -3.04 Q 454.36 -4.13 454.36 -5.7 Z M 471.32 -5.59 L 471.32 -5.59 L 471.32 -11.3 Q 471.32 -12.14 471.62 -13.12 Q 471.92 -14.09 472.58 -14.93 Q 473.25 -15.77 474.32 -16.33 Q 475.39 -16.89 476.92 -16.89 L 476.92 -16.89 L 484.25 -16.89 Q 485.09 -16.89 486.07 -16.59 Q 487.04 -16.3 487.88 -15.63 Q 488.72 -14.97 489.28 -13.9 Q 489.84 -12.83 489.84 -11.3 L 489.84 -11.3 Q 489.84 -10.45 489.54 -9.48 Q 489.25 -8.5 488.58 -7.66 Q 487.92 -6.83 486.85 -6.27 Q 485.78 -5.7 484.25 -5.7 L 484.25 -5.7 L 476.92 -5.7 L 476.92 -9.56 L 484.25 -9.56 Q 485.07 -9.56 485.53 -10.07 Q 485.98 -10.58 485.98 -11.33 L 485.98 -11.33 Q 485.98 -12.13 485.47 -12.58 Q 484.97 -13.03 484.25 -13.03 L 484.25 -13.03 L 476.92 -13.03 Q 476.09 -13.03 475.64 -12.52 Q 475.18 -12.02 475.18 -11.27 L 475.18 -11.27 L 475.18 -5.59 Q 475.18 -4.78 475.69 -4.33 Q 476.2 -3.88 476.95 -3.88 L 476.95 -3.88 L 484.25 -3.88 L 484.25 0 L 476.92 0 Q 476.07 0 475.1 -0.3 Q 474.12 -0.59 473.29 -1.26 Q 472.45 -1.92 471.89 -2.99 Q 471.32 -4.06 471.32 -5.59 Z" stroke-linecap="round" />
</g>
</g>
</g>
</svg>